<svg width="65" height="64" viewBox="0 0 65 64" fill="none" xmlns="http://www.w3.org/2000/svg">
<circle cx="32.2676" cy="32" r="32" fill="#0E2D80"/>
<g clip-path="url(#clip0)">
<path d="M6.77344 34.3961C6.80963 34.3425 6.82773 34.2889 6.84582 34.271C7.82304 33.0205 8.80025 31.7879 9.77746 30.5374C9.84984 30.4481 9.90413 30.3231 10.0851 30.3767C10.8271 30.6268 11.6233 30.6446 12.4015 30.6446C17.1427 30.6625 21.9021 30.6446 26.6434 30.6625C26.9149 30.6625 27.1863 30.6625 27.4759 30.6804C28.3988 30.734 29.2674 30.9483 30.0818 31.3949C30.9504 31.8772 31.6019 32.5382 31.9095 33.485C31.9276 33.5565 31.9457 33.6279 32.0181 33.6636C32.6153 31.8951 34.0087 31.127 35.7279 30.7697C36.2165 30.6625 36.7051 30.6625 37.1937 30.6625C41.8083 30.6625 46.4229 30.6625 51.0375 30.6625C51.8338 30.6625 52.63 30.6446 53.4082 30.5196C53.4263 30.5196 53.4444 30.5196 53.4444 30.5196C53.9511 30.2516 54.1863 30.5553 54.4759 30.9126C55.2902 31.9844 56.1226 33.0205 56.937 34.0745C57.0275 34.1817 57.136 34.271 57.1541 34.4318C57.0275 34.5568 56.8646 34.539 56.7017 34.5568C56.2674 34.6104 55.8331 34.6104 55.3988 34.6104C49.3907 34.6104 43.3827 34.6104 37.3746 34.6104C36.3974 34.6104 35.4383 34.6462 34.4792 34.8605C33.6468 35.057 32.8505 35.3428 32.1448 35.843C32 35.9502 31.9095 35.9324 31.7647 35.843C30.498 34.9856 29.0683 34.6997 27.5844 34.6283C27.1863 34.6104 26.7701 34.6104 26.372 34.6104C20.4363 34.6104 14.5006 34.6104 8.56499 34.6104C8.11258 34.6104 7.66017 34.6104 7.22585 34.5568C7.08108 34.5211 6.91821 34.5211 6.77344 34.3961Z" fill="white"/>
<path d="M31.982 25.6963C32.543 24.16 33.6649 23.249 35.0403 22.6237C36.7233 21.8556 38.4243 21.1232 40.1073 20.3908C41.0845 19.962 42.0436 19.4976 42.9846 18.9974C43.4552 18.7294 43.9438 18.4614 44.3419 18.0327C44.5048 18.2292 44.6495 18.4257 44.8124 18.6044C45.4096 19.3546 45.9887 20.0871 46.5859 20.8374C46.7668 21.0696 46.7668 21.0874 46.5316 21.2661C46.0249 21.6412 45.4458 21.9271 44.8848 22.195C42.7494 23.249 40.5416 24.1422 38.37 25.1068C36.5604 25.9107 34.7507 26.6789 33.0135 27.6435C32.7239 27.8043 32.4344 27.9651 32.181 28.1794C32.0725 28.2687 32.0001 28.2866 31.8734 28.1973C30.679 27.3398 29.3218 26.7324 27.9826 26.1251C25.4672 24.9818 22.9156 23.8921 20.3821 22.7667C19.4049 22.3379 18.4639 21.8377 17.559 21.2661C17.2514 21.0696 17.2514 21.0517 17.4867 20.7659C18.2105 19.8548 18.9344 18.9438 19.6582 18.0327C20.2554 18.6222 20.9793 18.9795 21.6851 19.3368C23.6757 20.3372 25.7206 21.1946 27.7474 22.0878C28.1636 22.2665 28.5617 22.4451 28.9779 22.6416C29.4666 22.856 29.919 23.1418 30.3352 23.4633C31.0771 24.0529 31.6743 24.7317 31.982 25.6963Z" fill="white"/>
<path d="M32 17.6576C32.3257 16.2463 33.0134 15.1923 34.1354 14.3885C35.384 13.4953 36.6508 12.6021 37.8452 11.6374C38.1347 11.4052 38.4242 11.1551 38.6957 10.905C38.9671 10.6728 39.2024 10.4048 39.3834 10.1011C39.4738 10.119 39.4919 10.1726 39.51 10.2262C39.9263 11.0836 40.3244 11.959 40.7587 12.8164C40.8673 13.0129 40.813 13.1558 40.6863 13.3166C40.3606 13.6739 39.9986 13.9776 39.6367 14.2813C38.569 15.1566 37.4289 15.9426 36.307 16.7644C35.3478 17.4611 34.3887 18.1399 33.4839 18.8902C32.9591 19.3189 32.4343 19.7476 32 20.2836C30.8418 18.9974 29.4122 18.0327 28.0368 17.0145C26.7701 16.0677 25.449 15.1745 24.2185 14.1741C23.8927 13.9061 23.5489 13.6203 23.2775 13.2988C23.1689 13.1737 23.0965 13.0665 23.187 12.8879C23.6394 11.959 24.0737 11.03 24.5261 10.0833C25.5214 11.3159 26.8063 12.1555 28.0368 13.0844C28.6702 13.5667 29.3217 14.0133 29.9551 14.4778C30.9323 15.1923 31.5657 16.1391 31.8733 17.3003C31.9095 17.3896 31.9457 17.4968 32 17.6576Z" fill="white"/>
<path d="M59 36.6648C58.7105 36.7898 58.4752 36.8255 58.24 36.8434C57.5523 36.9149 56.8465 36.9327 56.1589 36.9327C49.8251 36.9327 43.4732 36.9327 37.1394 36.9327C36.4699 36.9327 35.8003 36.9506 35.1488 37.0935C34.8593 37.165 34.5697 37.2543 34.2983 37.4151C33.9364 37.6116 33.6287 37.8974 33.502 38.2904C33.4297 38.5405 33.2849 38.5762 33.0496 38.5762C32.3077 38.5583 31.5657 38.5583 30.8419 38.5762C30.6247 38.5762 30.5161 38.5405 30.4256 38.3082C30.2447 37.7902 29.8285 37.4686 29.3398 37.2721C28.7427 37.022 28.1093 36.9685 27.4759 36.9327C27.1683 36.9149 26.8606 36.9327 26.5711 36.9327C20.3097 36.9327 14.0302 36.9327 7.7688 36.9327C7.08113 36.9327 6.37537 36.9149 5.6877 36.8434C5.45244 36.8255 5.23528 36.7898 4.98193 36.6826C5.181 36.3075 5.47054 36.0038 5.72389 35.6822C5.77818 35.5929 5.88676 35.6287 5.95915 35.6644C6.7011 35.8966 7.46116 35.9145 8.23931 35.9145C14.4283 35.9145 20.6354 35.9145 26.8244 35.9145C27.7473 35.9145 28.6703 35.9859 29.5751 36.2539C30.6066 36.5576 31.5114 37.022 31.9819 38.1117C32.5972 36.7719 33.7735 36.3611 35.0402 36.111C35.7098 35.9681 36.3794 35.9323 37.0671 35.9323C43.2018 35.9323 49.3365 35.9323 55.4712 35.9323C56.3217 35.9323 57.1723 35.9502 58.0047 35.6822C58.1133 35.6465 58.2038 35.6644 58.2762 35.7716C58.5114 36.0217 58.7286 36.3075 59 36.6648Z" fill="white"/>
<path d="M47.4365 21.9806C47.7079 22.2307 47.907 22.5344 48.1241 22.8202C48.2146 22.9274 48.1965 23.0346 48.106 23.1239C47.9613 23.2847 47.7622 23.3919 47.5812 23.4991C46.9479 23.8921 46.2602 24.1957 45.5725 24.4994C42.1161 25.9643 38.6777 27.4648 35.2937 29.0726C34.8956 29.2691 34.4794 29.4656 34.1355 29.7336C33.8098 29.9837 33.5383 30.2873 33.466 30.6982C33.4298 30.8769 33.3574 30.9305 33.1764 30.9305C32.3802 30.9305 31.5839 30.9305 30.7877 30.9305C30.6248 30.9305 30.5524 30.8947 30.5343 30.7339C30.4438 30.2516 30.1181 29.9301 29.7381 29.6621C29.3761 29.412 28.978 29.2512 28.598 29.0547C25.0692 27.3577 21.4499 25.8214 17.8487 24.2672C17.3058 24.035 16.781 23.767 16.2743 23.4455C16.1476 23.3561 16.0209 23.2668 15.8942 23.1596C15.7857 23.0703 15.7495 22.9453 15.858 22.8202C15.8942 22.7845 15.9123 22.7488 15.9304 22.713C16.1295 22.4987 16.2562 22.1235 16.5276 22.0521C16.781 21.9985 16.9981 22.32 17.2515 22.4629C18.3735 23.1418 19.5678 23.6956 20.7622 24.2315C23.2776 25.3569 25.8111 26.4466 28.3265 27.572C29.0323 27.8936 29.72 28.2509 30.4257 28.5903C30.9686 28.8582 31.4391 29.1976 31.8554 29.6264C31.9096 29.68 31.9458 29.7336 32.0544 29.7514C32.5973 29.0905 33.3574 28.6975 34.1174 28.3223C36.47 27.1612 38.8949 26.1429 41.3017 25.0889C42.8399 24.4101 44.3962 23.7313 45.8802 22.9453C46.405 22.6595 46.9298 22.3379 47.4365 21.9806Z" fill="white"/>
<path d="M22.6621 13.9776C23.6393 15.103 24.7975 15.9248 25.9376 16.7644C27.331 17.7826 28.7425 18.7651 30.1179 19.837C30.2808 19.962 30.4617 20.1049 30.6246 20.2478C31.1494 20.6766 31.6561 21.1232 31.9818 21.802C32.6514 20.6051 33.7553 19.9442 34.7506 19.1939C35.8726 18.3364 37.0308 17.5325 38.1708 16.6929C39.2747 15.889 40.3786 15.0673 41.3015 14.0133C41.5006 14.2992 41.5911 14.585 41.7358 14.8529C41.8082 14.978 41.7358 15.0673 41.6816 15.1745C41.5549 15.3889 41.3739 15.5496 41.1929 15.7104C40.8129 16.0498 40.4148 16.3535 39.9986 16.6393C38.388 17.8005 36.7593 18.9438 35.1487 20.1049C34.9316 20.2478 34.7325 20.4086 34.5334 20.5873C34.0086 21.0517 33.6467 21.5876 33.5381 22.2843C33.5019 22.463 33.4476 22.5344 33.2667 22.5166C32.4342 22.5166 31.5837 22.5166 30.7513 22.5166C30.6246 22.5166 30.5341 22.4987 30.516 22.3379C30.3893 21.409 29.8102 20.7659 29.0683 20.2478C28.0911 19.5511 27.132 18.8545 26.1547 18.1399C25.2499 17.4789 24.327 16.8358 23.4222 16.1749C23.0602 15.9069 22.7345 15.6211 22.4269 15.2817C22.264 15.0852 22.2097 14.9065 22.3545 14.6564C22.445 14.4778 22.5354 14.2456 22.6621 13.9776Z" fill="white"/>
<path d="M30.6431 44.6321C30.6431 43.6496 30.6431 42.7385 30.6431 41.8274C30.6431 41.2915 30.5707 41.3451 31.1317 41.3451C31.6927 41.3451 31.6022 41.3094 31.6022 41.8274C31.6022 43.2387 31.6022 44.6499 31.6022 46.0612C31.6022 46.4006 31.6022 46.4006 31.2403 46.4185C30.5707 46.4363 30.5707 46.4363 30.1907 45.8468C29.7202 45.0965 29.2497 44.3463 28.7792 43.596C28.7068 43.4709 28.6163 43.3637 28.4715 43.2566C28.4715 43.3637 28.4715 43.4709 28.4715 43.5781C28.4715 44.4356 28.4715 45.293 28.4715 46.1505C28.4715 46.3649 28.3991 46.4542 28.182 46.4363C27.3676 46.4185 27.5124 46.5435 27.5124 45.7932C27.4943 44.4534 27.5124 43.1136 27.5124 41.7739C27.5124 41.3451 27.4762 41.3808 27.9467 41.363C28.3629 41.3273 28.6163 41.4523 28.8334 41.8274C29.2859 42.6492 29.8107 43.4352 30.3174 44.2391C30.4078 44.3641 30.4621 44.4892 30.6431 44.6321Z" fill="white"/>
<path d="M21.8662 43.8997C21.8662 43.1494 21.8662 42.417 21.8662 41.6667C21.8662 41.363 21.8662 41.363 22.1739 41.3451C22.9158 41.3273 22.9158 41.3273 22.9158 42.0597C22.9158 42.3991 22.9158 42.7385 22.9158 43.0958C22.9158 43.2745 22.952 43.3638 23.1511 43.3459C23.6759 43.328 24.2007 43.3459 24.7074 43.3459C24.8702 43.3459 24.9426 43.2745 24.9245 43.1137C24.9245 42.6135 24.9245 42.1133 24.9245 41.6131C24.9245 41.3987 24.9969 41.3451 25.196 41.3451C25.9741 41.3094 25.9741 41.3094 25.9741 42.0597C25.9741 43.3816 25.9741 44.7214 25.9741 46.0434C25.9741 46.4185 25.9741 46.4185 25.6122 46.4364C24.9426 46.4542 24.9426 46.4542 24.9426 45.7933C24.9426 45.3645 24.9426 44.9358 24.9426 44.5071C24.9426 44.3106 24.9064 44.1855 24.6531 44.2034C24.1645 44.2212 23.6759 44.2212 23.1873 44.2034C22.9701 44.2034 22.9158 44.2748 22.9158 44.4713C22.9339 45.0251 22.9158 45.5789 22.9158 46.1327C22.9158 46.3649 22.8434 46.4185 22.6263 46.4185C21.8843 46.4364 21.8843 46.4364 21.8843 45.7218C21.8662 45.1323 21.8662 44.5071 21.8662 43.8997Z" fill="white"/>
<path d="M37.248 43.2923C37.248 43.8104 37.2661 44.3284 37.248 44.8286C37.2118 45.8647 36.687 46.4006 35.6555 46.5078C35.2755 46.5435 34.8773 46.5257 34.4973 46.4542C33.7916 46.2934 33.3572 45.8468 33.2487 45.1502C33.2306 44.9894 33.1944 44.8107 33.1944 44.6321C33.1944 43.6317 33.1944 42.6313 33.1763 41.631C33.1763 41.4345 33.2306 41.363 33.4477 41.363C34.2259 41.3273 34.2259 41.3273 34.2259 42.0776C34.2259 42.7028 34.2259 43.328 34.2259 43.9533C34.2259 44.1855 34.2259 44.4177 34.2259 44.6321C34.2621 45.4717 35.0583 45.9183 35.8003 45.5253C36.0536 45.4002 36.1803 45.168 36.1984 44.9001C36.2165 44.5964 36.2346 44.2927 36.2346 44.0069C36.2346 43.2208 36.2346 42.4348 36.2346 41.6488C36.2346 41.4345 36.307 41.363 36.5241 41.3451C37.2842 41.3273 37.2842 41.3094 37.2842 42.0418C37.2661 42.4527 37.2661 42.8814 37.248 43.2923C37.248 43.2923 37.2661 43.2923 37.248 43.2923Z" fill="white"/>
<path d="M38.8224 43.864C38.8224 43.1315 38.8224 42.417 38.8224 41.6846C38.8224 41.3809 38.8224 41.363 39.13 41.363C40.0348 41.363 40.9215 41.363 41.8264 41.363C42.0616 41.363 42.134 41.4345 42.1159 41.6488C42.0978 42.3277 42.1883 42.2026 41.5368 42.2205C41.0663 42.2205 40.6139 42.2383 40.1434 42.2205C39.9081 42.2205 39.8358 42.3098 39.8539 42.5242C39.89 42.7921 39.7272 43.1137 39.9262 43.3102C40.0891 43.4531 40.3967 43.3459 40.632 43.3638C41.0301 43.3638 41.4463 43.3816 41.8445 43.3638C42.0435 43.3638 42.0978 43.4352 42.0797 43.6139C42.0616 44.3641 42.134 44.2034 41.5006 44.2212C41.0301 44.2212 40.5777 44.2212 40.1072 44.2212C39.9081 44.2212 39.8177 44.257 39.8177 44.4892C39.8358 44.775 39.8358 45.0608 39.8177 45.3467C39.7996 45.561 39.89 45.6146 40.0891 45.6146C40.632 45.5968 41.1568 45.6146 41.6997 45.6146C42.0616 45.6146 42.0616 45.6146 42.0616 45.954C42.0616 46.5435 42.1159 46.4721 41.573 46.4721C40.7406 46.4721 39.9262 46.4721 39.0938 46.4721C38.7862 46.4721 38.7862 46.4721 38.7681 46.1684C38.8224 45.3645 38.8224 44.6142 38.8224 43.864Z" fill="white"/>
<path d="M40.3786 53.4747C40.3062 54.0107 40.2519 54.5466 40.1796 55.0646C40.1615 55.2254 40.1434 55.3862 40.1072 55.5291C40.071 55.7077 39.9262 55.7434 39.7814 55.6005C39.7271 55.5469 39.6729 55.4755 39.6186 55.404C39.3109 55.0468 39.0214 54.6716 38.7137 54.3143C38.6414 54.225 38.5871 54.0821 38.4242 54.0642C38.388 54.2965 38.4966 54.4751 38.5509 54.6895C38.6414 55.0646 38.768 55.4219 38.8766 55.797C38.9128 55.9042 38.9128 55.9935 38.768 56.0293C38.6594 56.0471 38.6233 55.9757 38.6052 55.8864C38.388 55.1539 38.1889 54.4394 37.9718 53.707C37.9537 53.6176 37.9175 53.5283 38.0261 53.4926C38.1346 53.4569 38.2613 53.3676 38.388 53.4926C38.4604 53.5641 38.5147 53.6534 38.5871 53.7248C38.9852 54.1893 39.3652 54.6716 39.7814 55.1718C39.9081 55.0468 39.9081 54.9217 39.9262 54.8145C39.9986 54.2786 40.0529 53.7427 40.1253 53.2068C40.1253 53.1532 40.1434 53.0996 40.1615 53.046C40.1977 52.8674 40.3605 52.8495 40.5053 52.8316C40.6501 52.8138 40.6501 52.9567 40.6682 53.046C40.8672 53.7248 41.0663 54.4215 41.2653 55.1003C41.2653 55.1182 41.2653 55.1361 41.2834 55.1361C41.3196 55.2433 41.3558 55.3326 41.2111 55.3683C41.0663 55.404 41.0301 55.3147 41.012 55.2254C40.8672 54.7431 40.7405 54.2607 40.5958 53.7963C40.5415 53.6712 40.5415 53.5462 40.3786 53.4747Z" fill="white"/>
<path d="M49.373 49.9198C49.373 49.9198 48.6672 49.0445 48.3234 48.6158C48.2691 48.5443 48.1786 48.4728 48.3053 48.3657C48.4139 48.2763 48.4863 48.3478 48.5586 48.4192C49.0291 48.9909 49.4997 49.5804 49.9702 50.152C50.0245 50.2235 50.0787 50.295 50.0064 50.3664C49.9521 50.4379 49.8797 50.4915 49.7711 50.4557C49.6444 50.42 49.5178 50.3843 49.3911 50.3485C48.7396 50.152 48.07 49.9555 47.4005 49.759C47.3462 49.902 47.4367 49.9734 47.4909 50.0449C47.7805 50.42 48.0881 50.7773 48.3958 51.1346C48.4501 51.206 48.5044 51.2596 48.5586 51.3311C48.6129 51.3847 48.631 51.4561 48.5586 51.5097C48.4863 51.5812 48.4139 51.599 48.3415 51.5097C48.2148 51.3668 48.1062 51.2239 47.9796 51.081C47.5814 50.5986 47.1833 50.0985 46.7671 49.6161C46.8938 49.3839 47.0566 49.3482 47.31 49.4196C47.9615 49.634 49.2644 49.9913 49.2644 49.9913C49.2644 49.9913 49.3549 50.0449 49.3911 49.9913C49.4273 49.9913 49.373 49.9198 49.373 49.9198Z" fill="white"/>
<path d="M11.0083 47.5082C11.2617 47.2759 11.4788 47.0616 11.7141 46.8472C11.8407 46.74 11.9674 46.6328 11.8045 46.4721C11.7503 46.4006 11.7684 46.347 11.8407 46.2934C11.895 46.2577 11.9493 46.2577 11.9855 46.3113C12.1122 46.4899 12.2208 46.4006 12.3293 46.2934C12.5284 46.1148 12.7275 45.9362 12.9446 45.7397C13.2161 45.9897 13.4513 46.2398 13.6504 46.5078C14.0847 47.0973 14.0123 47.8119 13.4694 48.2763C12.9627 48.7229 12.2389 48.7229 11.696 48.2406C11.4788 48.0084 11.2617 47.7583 11.0083 47.5082ZM12.9627 46.1148C12.836 46.222 12.7456 46.3113 12.6551 46.4006C12.4198 46.615 12.4198 46.615 12.5827 46.9187C12.6189 46.9901 12.6189 47.0437 12.5465 47.0973C12.4741 47.1509 12.4017 47.1152 12.3655 47.0616C12.2208 46.8651 11.9312 47.0616 11.9312 47.0616C11.9312 47.0616 11.4607 47.3295 11.4969 47.5439C11.5331 47.7761 11.8045 47.9548 12.0036 48.0977C12.4198 48.4014 12.9446 48.3656 13.3247 48.0262C13.7047 47.7047 13.7952 47.1866 13.5418 46.74C13.3789 46.5257 13.198 46.3113 12.9627 46.1148Z" fill="white"/>
<path d="M49.9337 46.7936C50.1871 46.8293 50.4042 46.6864 50.6395 46.6864C51.3091 46.7043 51.852 47.1152 51.9786 47.7404C52.1234 48.3835 51.7615 49.0623 51.1281 49.3124C50.5128 49.5804 49.8251 49.3839 49.4451 48.8301C49.0832 48.312 49.1556 47.5975 49.5899 47.133C49.6985 47.008 49.8975 46.9723 49.9337 46.7936ZM50.6033 49.1159C51.2548 49.1159 51.7253 48.6336 51.7253 48.0084C51.7072 47.4189 51.2367 46.9544 50.6395 46.9544C50.0061 46.9544 49.4994 47.4724 49.5175 48.0798C49.5356 48.6872 50.0061 49.1516 50.6033 49.1159Z" fill="white"/>
<path d="M20.147 54.3144C20.0927 54.1893 19.9661 54.1893 19.8756 54.1178C19.3146 53.7248 19.0974 52.9924 19.387 52.4029C19.6765 51.7955 20.4185 51.474 21.0699 51.6884C21.7395 51.9027 22.1557 52.5458 22.0652 53.2247C21.9748 53.8499 21.3776 54.3679 20.708 54.3858C20.509 54.3858 20.328 54.3322 20.147 54.3144ZM20.6718 54.0821C21.2871 54.0821 21.7938 53.5998 21.7757 53.0103C21.7576 52.4208 21.2509 51.9206 20.6537 51.9206C20.0565 51.9206 19.5498 52.385 19.5498 52.9567C19.5317 53.5641 20.0384 54.0821 20.6718 54.0821Z" fill="white"/>
<path d="M17.5591 51.474C17.3781 51.7777 17.2152 52.0456 17.0524 52.3314C16.9981 52.4208 16.9619 52.5279 16.8352 52.4565C16.6723 52.385 16.7447 52.2778 16.8171 52.1707C17.1791 51.5454 17.5591 50.9023 17.921 50.2771C17.9753 50.2056 17.9934 50.0806 18.1382 50.152C18.301 50.2235 18.2286 50.3307 18.1744 50.4379C18.1382 50.4915 18.102 50.5629 18.0658 50.6165C17.9753 50.813 17.7219 50.9916 17.7943 51.206C17.8486 51.4025 18.1382 51.4561 18.3191 51.5633C18.8801 51.8848 18.8801 51.8848 19.2059 51.3132C19.2601 51.206 19.3144 51.1167 19.3868 51.0274C19.4411 50.9381 19.5135 50.9381 19.604 50.9916C19.6764 51.0452 19.6764 51.0988 19.6402 51.1703C19.6402 51.1881 19.6221 51.1881 19.6221 51.206C19.2421 51.867 18.862 52.5101 18.4639 53.171C18.4277 53.2425 18.3734 53.3318 18.2648 53.2604C18.1382 53.2068 18.1563 53.1175 18.2106 53.0103C18.3553 52.778 18.482 52.5279 18.6268 52.3136C18.7173 52.1707 18.6992 52.0813 18.5544 52.0099C18.2106 51.8491 17.9029 51.6526 17.5591 51.474Z" fill="white"/>
<path d="M33.5925 56.1007C33.6106 56.2794 33.6287 56.4759 33.6468 56.6545C33.6468 56.726 33.6106 56.7974 33.5382 56.7974C33.4477 56.8153 33.3573 56.7974 33.3573 56.6724C33.3392 56.4937 33.3211 56.2972 33.303 56.1186C33.2487 55.5827 33.2125 55.0468 33.1582 54.5108C33.1582 54.4394 33.1582 54.3679 33.1582 54.2965C33.1582 54.2071 33.2125 54.1714 33.303 54.1714C33.3935 54.1714 33.4296 54.2071 33.4477 54.2965C33.4658 54.5287 33.5201 54.7788 33.5201 55.011C33.5201 55.2433 33.6106 55.3147 33.8459 55.279C34.1173 55.2433 34.3888 55.2254 34.6602 55.2075C34.805 55.2075 34.8593 55.1361 34.8593 54.9932C34.8412 54.7609 34.8231 54.5108 34.805 54.2607C34.7869 54.1536 34.7869 54.0642 34.9136 54.0285C35.0583 53.9928 35.0764 54.0821 35.0945 54.2071C35.1488 54.9396 35.2212 55.6899 35.2755 56.4223C35.2755 56.4937 35.2936 56.5652 35.2393 56.6188C35.2212 56.6367 35.1669 56.6367 35.1126 56.6545C35.0221 56.6545 34.9859 56.6009 34.9859 56.5295C34.9678 56.2615 34.9317 55.9936 34.9136 55.7256C34.9136 55.5112 34.8231 55.4576 34.6059 55.4934C34.3707 55.5291 34.1173 55.5291 33.8821 55.5648C33.5744 55.6005 33.5744 55.6005 33.5925 55.9042C33.5925 55.9578 33.5925 56.0293 33.5925 56.1007Z" fill="white"/>
<path d="M42.4781 53.2068C42.8581 53.0281 43.1838 52.8674 43.5096 52.7245C43.6543 52.6709 43.6724 52.5815 43.6001 52.4565C43.5096 52.2779 43.4191 52.0992 43.3467 51.9206C43.3105 51.8134 43.1115 51.6705 43.3286 51.5633C43.5458 51.4561 43.5458 51.6705 43.6001 51.7777C43.8715 52.3136 44.1068 52.8674 44.3782 53.4033C44.4144 53.4747 44.4506 53.5641 44.4868 53.6355C44.523 53.7248 44.6316 53.8499 44.4687 53.9213C44.2696 54.0285 44.2515 53.832 44.2153 53.7427C44.0706 53.4747 43.962 53.2068 43.8172 52.921C43.4372 53.0281 43.1115 53.2247 42.7857 53.3676C42.6409 53.4212 42.6228 53.5105 42.6952 53.6355C42.8219 53.8856 42.9305 54.1178 43.0391 54.3679C43.0934 54.4573 43.1114 54.5466 42.9848 54.618C42.84 54.6895 42.8038 54.5823 42.7676 54.493C42.4419 53.8142 42.1342 53.1532 41.8085 52.4744C41.7542 52.3672 41.7361 52.2957 41.8628 52.2243C42.0076 52.1528 42.0438 52.26 42.0799 52.3493C42.2247 52.6173 42.3333 52.9031 42.4781 53.2068Z" fill="white"/>
<path d="M27.7655 55.5291C27.8197 55.1361 27.8921 54.618 27.9645 54.0821C27.9826 53.9749 28.0007 53.8856 28.1455 53.9035C28.2902 53.9213 28.2902 54.0107 28.2722 54.1178C28.2179 54.5466 28.1455 54.9575 28.0912 55.3862C28.0731 55.547 28.055 55.7077 28.0731 55.8507C28.1093 56.1186 28.3083 56.333 28.5798 56.3687C28.8331 56.4044 29.0865 56.2794 29.2132 56.0114C29.3037 55.7971 29.3218 55.5648 29.3579 55.3505C29.4122 55.0468 29.4665 54.7609 29.4665 54.4573C29.4665 54.1893 29.6837 54.0821 29.8285 53.9392C29.937 53.832 30.0999 53.9392 30.0818 54.0821C30.0637 54.2072 30.1361 54.3858 29.9008 54.4037C29.7561 54.4037 29.7742 54.5466 29.7561 54.6359C29.7018 54.9396 29.6656 55.2611 29.6113 55.5648C29.5932 55.672 29.5751 55.7971 29.557 55.9042C29.4122 56.4402 29.0322 56.726 28.5074 56.6545C28.0369 56.5831 27.7474 56.1901 27.7655 55.5291Z" fill="white"/>
<path d="M24.8337 53.8856C24.5984 53.9392 24.5622 53.7606 24.4718 53.6177C24.1822 53.1175 23.6031 52.921 23.0964 53.1353C22.5354 53.3676 22.2821 53.9571 22.4992 54.5109C22.7164 55.0825 23.3317 55.3326 23.9289 55.1361C24.0917 55.0825 24.2365 54.9396 24.3994 55.1004C24.0374 55.5291 23.4041 55.6184 22.8612 55.3326C22.3002 55.0289 22.0106 54.3858 22.1735 53.7606C22.3364 53.1532 22.9336 52.7245 23.5669 52.7602C24.2003 52.8138 24.7251 53.2604 24.8337 53.8856Z" fill="white"/>
<path d="M38.2434 56.0829C38.0805 56.1722 37.972 56.2079 37.8815 56.0829C37.791 55.9578 37.6824 55.8328 37.61 55.6899C37.4834 55.4398 37.2843 55.3862 37.049 55.4755C37.0129 55.4934 36.9586 55.5112 36.9224 55.5112C36.4157 55.5291 36.0899 55.7256 36.0899 56.2794C36.0899 56.5116 36.0356 56.5116 35.7461 56.6009C35.7461 56.2258 35.8728 55.9042 35.9452 55.5469C36.0537 55.0289 36.1804 54.5108 36.289 53.9928C36.3252 53.8677 36.3795 53.7963 36.5062 53.7784C36.6328 53.7606 36.6871 53.8141 36.7414 53.9035C37.2481 54.6359 37.7367 55.3504 38.2434 56.0829ZM37.23 55.1539C37.0129 54.7967 36.8319 54.493 36.5604 54.1893C36.4519 54.5823 36.3614 54.9396 36.3433 55.3147C36.6328 55.279 36.9043 55.2254 37.23 55.1539Z" fill="white"/>
<path d="M14.7542 50.9917C14.5551 50.9023 14.4647 50.7952 14.5551 50.6344C14.5551 50.6165 14.5551 50.5986 14.5732 50.5986C14.6094 50.3664 14.8628 50.0985 14.718 49.9198C14.537 49.6519 14.2294 49.4554 13.958 49.2231C13.8675 49.1338 13.777 49.1874 13.6684 49.241C13.5055 49.3303 13.3246 49.4018 13.1617 49.4911C12.9988 49.5804 12.8903 49.5268 12.8179 49.3303C13.216 49.1517 13.596 48.9552 13.976 48.7765C14.3742 48.58 14.7904 48.3835 15.1885 48.2049C15.2971 48.1513 15.4057 48.1334 15.4962 48.2406C15.5866 48.3299 15.5866 48.4014 15.5504 48.5086C15.2971 49.2946 15.0437 50.1163 14.7542 50.9917ZM15.1885 48.58L14.1751 48.9909L14.899 49.5625L15.1885 48.58Z" fill="white"/>
<path d="M47.2374 52.3672C47.1107 52.4922 47.0202 52.5637 46.8754 52.4565C46.8392 52.4208 46.7669 52.4029 46.7307 52.3493C46.3868 51.9742 46.043 51.9563 45.663 52.2779C45.5725 52.3493 45.4639 52.4029 45.3553 52.4565C45.2287 52.528 45.1744 52.6173 45.1925 52.7602C45.2287 52.921 45.2287 53.0996 45.2468 53.2782C45.2468 53.3497 45.2649 53.4212 45.2468 53.4926C45.2287 53.5641 45.1563 53.5998 45.0839 53.6177C44.9753 53.6355 44.9934 53.5462 44.9753 53.4747C44.921 53.0103 44.8667 52.5458 44.8124 52.0635C44.7763 51.7062 44.7401 51.3489 44.7039 50.9917C44.6858 50.8845 44.7039 50.7951 44.8124 50.7416C44.921 50.688 44.9934 50.7058 45.0839 50.7594C45.7897 51.3132 46.5135 51.8491 47.2374 52.3672ZM45.1744 52.2779C45.4277 52.1171 45.6992 52.0099 45.9525 51.7955C45.6087 51.599 45.3734 51.3132 44.9934 51.1524C45.0658 51.5454 45.0477 51.9027 45.1744 52.2779Z" fill="white"/>
<path d="M27.0053 55.547C27.0053 55.3505 26.9148 55.2254 26.7519 55.1361C26.6071 55.0646 26.4624 54.9932 26.3357 54.9039C26.0099 54.6895 25.9014 54.3858 26.0461 54.0642C26.1728 53.7606 26.4986 53.5819 26.8605 53.6355C27.1862 53.6891 27.4758 53.9749 27.4939 54.2965C27.4939 54.3679 27.512 54.4394 27.4215 54.4751C27.331 54.493 27.2405 54.4751 27.2043 54.3858C27.1681 54.3143 27.1862 54.2429 27.15 54.1893C27.0595 53.9928 26.9148 53.9035 26.6976 53.9213C26.4986 53.9392 26.3719 54.0285 26.3176 54.2072C26.2452 54.4215 26.3357 54.5644 26.5166 54.6716C26.6795 54.7609 26.8424 54.8503 27.0053 54.9574C27.331 55.1897 27.4215 55.5291 27.2767 55.8506C27.1138 56.1901 26.7338 56.3866 26.3357 56.2972C25.9918 56.2258 25.7023 55.9042 25.7023 55.5827C25.7023 55.5112 25.6842 55.3862 25.7928 55.3683C25.9014 55.3505 25.9918 55.404 26.0099 55.5291C26.028 55.6184 26.0461 55.7077 26.0823 55.7792C26.1909 55.9757 26.4443 56.0829 26.6795 56.0114C26.8605 55.9578 27.0234 55.7613 27.0053 55.547Z" fill="white"/>
<path d="M31.1856 55.4934C31.1856 55.1361 31.1856 54.7788 31.1856 54.4215C31.1856 54.2429 31.258 54.1714 31.4389 54.1714C31.7285 54.1714 32.018 54.1893 32.3076 54.2429C32.7057 54.3144 32.9591 54.6359 32.9591 55.0289C32.941 55.4041 32.6876 55.6899 32.2895 55.7613C32.1085 55.7971 31.9095 55.7971 31.7285 55.7792C31.4932 55.7613 31.4208 55.8507 31.4389 56.065C31.4389 56.2258 31.4389 56.3866 31.4208 56.5295C31.4208 56.6367 31.4751 56.8153 31.258 56.7974C31.0589 56.7796 31.1132 56.6188 31.1132 56.4938C31.1132 56.2973 31.1313 56.1008 31.1494 55.9042C31.1494 55.7613 31.1494 55.6184 31.1494 55.4755C31.1494 55.4934 31.1675 55.4934 31.1856 55.4934ZM31.457 55.0825C31.457 55.1718 31.457 55.2611 31.457 55.3326C31.457 55.4041 31.4751 55.4755 31.5656 55.4934C31.8552 55.5112 32.1447 55.5648 32.4162 55.4219C32.7057 55.2611 32.7419 54.8324 32.4885 54.618C32.3619 54.5109 31.6742 54.3858 31.5837 54.4751C31.4389 54.618 31.5113 54.8145 31.4751 54.9932C31.457 55.0289 31.457 55.0646 31.457 55.0825Z" fill="white"/>
<path d="M16.7446 49.1874C16.817 49.241 16.9436 49.2767 16.8532 49.4018C16.7989 49.4911 16.7265 49.5804 16.6541 49.6876C16.2922 50.1699 15.9483 50.6522 15.5864 51.1346C15.5321 51.206 15.4778 51.2775 15.4235 51.3489C15.3692 51.4204 15.2969 51.4025 15.2426 51.3489C15.1702 51.2953 15.1521 51.2418 15.2064 51.1703C15.6769 50.5272 16.1655 49.8841 16.636 49.241C16.6541 49.2053 16.6903 49.1695 16.7446 49.1874Z" fill="white"/>
<path d="M51.0013 45.7397C51.0918 45.7397 51.1461 45.7932 51.2004 45.8468C51.7614 46.3113 52.3223 46.7758 52.8833 47.2402C52.9557 47.2938 53.0643 47.3474 52.9738 47.4724C52.8652 47.6154 52.7748 47.526 52.6843 47.4546C52.1233 46.9901 51.5623 46.5257 51.0013 46.0612C50.947 46.0076 50.8384 45.954 50.8927 45.8647C50.9108 45.8111 50.9651 45.7754 51.0013 45.7397Z" fill="white"/>
<path d="M49.9336 46.7758C49.5716 46.6865 49.445 46.7579 49.3364 47.0616C49.3002 47.1688 49.2459 47.276 49.1192 47.2938C49.0288 47.2045 49.083 47.1152 49.083 47.0259C49.1373 46.5614 49.3907 46.3828 49.8431 46.5078C49.9879 46.5436 49.8793 46.615 49.8612 46.6507C49.825 46.7401 49.8612 46.7579 49.9336 46.7758C49.9336 46.7758 49.9336 46.7937 49.9336 46.7758Z" fill="white"/>
<path d="M44.5231 50.4557C44.4326 50.4557 44.3603 50.4557 44.2698 50.4557C44.1974 50.4557 44.125 50.4379 44.125 50.3485C44.125 50.2771 44.1431 50.2056 44.2336 50.2056C44.4326 50.1878 44.6317 50.1878 44.8308 50.1878C44.9212 50.1878 44.9574 50.2235 44.9574 50.3128C44.9574 50.4021 44.9031 50.4379 44.8308 50.4379C44.7222 50.4557 44.6317 50.4557 44.5231 50.4557Z" fill="white"/>
<path d="M37.0489 57.0832C36.9223 57.0475 36.9404 56.8867 36.9042 56.7617C36.868 56.6366 36.9765 56.6188 37.0489 56.6188C37.2842 56.6188 37.1937 56.8153 37.2299 56.9403C37.2842 57.0475 37.2118 57.0832 37.0489 57.0832Z" fill="white"/>
<path d="M20.1289 54.3143C20.0565 54.4394 20.1289 54.6001 20.0203 54.7252C19.9661 54.7967 19.9299 54.8681 19.8213 54.8145C19.6946 54.7609 19.7127 54.6895 19.767 54.5823C19.8394 54.4572 19.8756 54.3143 20.0746 54.3858C20.1108 54.4036 20.1289 54.3679 20.1289 54.3143C20.1289 54.3143 20.147 54.3143 20.1289 54.3143Z" fill="white"/>
<path d="M13.234 50.5451C13.2295 50.4067 13.3634 50.2862 13.4973 50.3275C13.5785 50.3525 13.6171 50.3806 13.6447 50.4966C13.6723 50.6126 13.5451 50.7601 13.3857 50.7247C13.2958 50.7048 13.2369 50.636 13.234 50.5451Z" fill="white"/>
<path d="M52.0872 49.4553C52.0691 49.4732 52.051 49.5268 52.0148 49.5446C51.8701 49.6518 51.8158 49.5089 51.7434 49.4375C51.6529 49.366 51.6167 49.2767 51.7072 49.1874C51.7253 49.1695 51.7434 49.1338 51.7796 49.1338C51.8701 49.1159 52.0872 49.3481 52.0872 49.4553Z" fill="white"/>
</g>
<defs>
<clipPath id="clip0">
<rect width="54" height="47" fill="white" transform="translate(5 10.0833)"/>
</clipPath>
</defs>
</svg>
